# xmcd
# Copyright (C) 1995-1998 Ti Kan
#
# Track frame offsets:
#       150
#       13242
#       30490
#
# Disc length: 592 seconds
#
# Revision: 0
# Processed by: cddbd v1.5.2PL0 Copyright (c) Steve Scherf et al.
# Submitted via: CD-Transfer v1.0
#
DISCID=1a024e03
DTITLE=HOTSPOT - 
DYEAR=1900
DGENRE=
TTITLE0=SHANNON
TTITLE1=LASSO
TTITLE2=JETZT ODER NIE
EXTD=
EXTT0=
EXTT1=
EXTT2=
PLAYORDER=
